<?xml version="1.0" encoding="iso-8859-1"?>
<!-- Generator: Adobe Illustrator 19.0.0, SVG Export Plug-In . SVG Version: 6.00 Build 0)  -->
<svg version="1.1" id="Capa_1" xmlns="http://www.w3.org/2000/svg" xmlns:xlink="http://www.w3.org/1999/xlink" x="0px" y="0px"
	 viewBox="0 0 512.001 512.001" style="enable-background:new 0 0 512.001 512.001;" xml:space="preserve">
<g>
	<g>
		<path d="M286.027,257.082c-2.16-3.533-6.776-4.647-10.311-2.486c-13.272,8.116-26.175,8.116-39.448,0
			c-3.534-2.161-8.15-1.047-10.311,2.486c-2.161,3.534-1.048,8.15,2.486,10.311c9.012,5.51,18.28,8.265,27.548,8.265
			c9.269,0,18.537-2.755,27.549-8.265C287.075,265.232,288.188,260.616,286.027,257.082z"/>
	</g>
</g>
<g>
	<g>
		<path d="M468.818,430.454c-1.418-3.892-5.723-5.898-9.614-4.48c-3.892,1.417-5.898,5.722-4.481,9.614
			c5.295,14.539,7.98,29.832,7.98,45.455v6.798H399.75v-67.303c0-4.142-3.358-7.5-7.5-7.5s-7.5,3.358-7.5,7.5v67.303h-34.788
			V349.762c16.406,2.501,32.246,8.034,46.609,16.39c19.575,11.389,36.035,27.702,47.599,47.176c1.402,2.361,3.896,3.672,6.456,3.672
			c1.302,0,2.621-0.339,3.822-1.052c3.562-2.115,4.734-6.717,2.619-10.278c-12.866-21.665-31.176-39.814-52.953-52.483
			c-22.449-13.061-48.118-19.964-74.232-19.964h-3.458v-35.512c0.005-0.008,0.009-0.017,0.013-0.025l13.54,26.203
			c1.294,2.505,3.874,4.057,6.661,4.057c0.197,0,0.396-0.008,0.595-0.023c3.01-0.239,5.583-2.259,6.529-5.126l9.755-29.561
			l29.463,9.97c3.902,1.321,8.137-0.752,9.488-4.643l0.356-1.026c0.675-1.943,0.522-4.077-0.421-5.904l-39.769-76.964
			c0.442-1.28,0.858-2.591,1.241-3.939c4.008-14.108,2.269-29.035-4.54-38.959c-3.239-4.721-7.421-8.104-12.31-10.018
			c1.718-31.057-8.543-61.899-27.998-83.467c-16.861-18.694-39.249-28.989-63.039-28.989s-46.176,10.295-63.039,28.989
			c-19.455,21.568-29.717,52.41-27.998,83.468c-4.88,1.911-9.054,5.288-12.285,9.999c-6.804,9.918-8.538,24.853-4.524,38.978
			c4.701,16.547,13.96,28.067,24.999,31.683l2.454,23.753c1.173,11.35,4.674,22.018,9.958,31.544v35.513h-3.457
			c-81.508,0-147.819,66.312-147.819,147.819v14.298c0,4.142,3.358,7.5,7.5,7.5h428.426v0c4.142,0,7.5-3.358,7.5-7.5v-14.298
			C477.704,463.664,474.714,446.644,468.818,430.454z M162.575,206.632c-2.74-9.644-1.75-20.25,2.465-26.393
			c0.468-0.681,0.97-1.281,1.494-1.829l4.624,44.753c0.001,0.007,0.001,0.013,0.002,0.02l0.032,0.312
			C167.674,219.609,164.596,213.743,162.575,206.632z M340.827,223.182c0.001-0.007,0.001-0.013,0.002-0.02l4.624-44.76
			c0.533,0.555,1.042,1.165,1.518,1.857c4.218,6.148,5.215,16.747,2.48,26.374c-2.029,7.142-5.125,13.031-8.662,16.914
			L340.827,223.182z M336.385,266.169l2.453-23.738c5.706-1.858,10.939-5.825,15.313-11.51l27.122,52.489l-20.103-6.803
			c-1.893-0.641-3.963-0.5-5.753,0.394c-1.789,0.893-3.147,2.462-3.773,4.361l-6.53,19.789l-11.232-21.736
			C335.057,275.124,335.916,270.705,336.385,266.169z M204.093,88.335c13.981-15.499,32.413-24.036,51.9-24.036
			s37.92,8.536,51.9,24.036c15.568,17.258,24.312,41.525,24.328,66.552c-3.293-5.74-6.586-11.48-9.88-17.218
			c-1.204-2.099-3.945-3.987-6.476-3.715c-30.013,3.227-60.025-3.464-85.473-19.797c-5.538-3.554-12.799,2.329-11.018,8.47
			c2.388,8.231,5.273,16.288,8.593,24.173c-10.027-0.987-19.857-3.463-29.162-7.529c-3.781-1.652-7.937-1.091-10.261,2.691
			c-2.923,4.756-5.846,9.512-8.769,14.268C179.476,130.729,188.247,105.901,204.093,88.335z M246.253,150.997
			c-2.328-4.773-4.438-9.625-6.362-14.548c22.342,10.312,47.258,14.798,71.847,12.879c3.133,5.46,6.265,10.919,9.397,16.378h-9.032
			c-1.463-3.335-5.173-5.199-8.799-4.227l-15.774,4.227h-95.974c2.194-3.57,4.389-7.14,6.583-10.711
			c13.345,4.937,27.259,7.527,41.639,7.286C245.76,162.181,248.724,156.063,246.253,150.997z M185.384,214.904l-3.463-33.519
			c0.139-0.227,0.278-0.453,0.418-0.68h147.401c0.112,0.194,0.223,0.389,0.335,0.583l-3.473,33.616H185.384z M255.994,325.247
			c-33.202,0-61.96-26.627-65.472-60.62l-3.587-34.722h55.748v2.031c0,4.142,3.358,7.5,7.5,7.5s7.5-3.358,7.5-7.5v-2.031h67.37
			l-3.587,34.722C317.954,298.62,289.196,325.247,255.994,325.247z M311.427,317.288v23.435c0,30.431-28.736,44.292-55.436,44.292
			c-26.699,0-55.435-13.861-55.435-44.292v-23.435h0.001c14.641,14.203,34.297,22.957,55.435,22.957
			C277.13,340.245,296.786,331.492,311.427,317.288z M273.711,487.841H127.256v-67.319c0-4.142-3.358-7.5-7.5-7.5
			c-4.142,0-7.5,3.358-7.5,7.5v67.319H49.281v-6.798c0-73.238,59.582-132.82,132.82-132.82h3.922
			c1.862,15.195,9.458,28.022,22.273,37.397c12.69,9.283,29.628,14.395,47.695,14.395c6.076,0,12.018-0.591,17.719-1.712V487.841z
			 M334.965,487.84h-46.254v-93.97c5.432-2.201,10.476-4.958,14.978-8.251c12.816-9.375,20.411-22.202,22.273-37.397h3.924
			c1.696,0,3.389,0.042,5.08,0.106V487.84z"/>
	</g>
</g>
<g>
	<g>
		<path d="M255.993,287.531c-4.142,0-7.5,3.358-7.5,7.5v10.311c0,4.142,3.358,7.5,7.5,7.5s7.5-3.358,7.5-7.5v-10.311
			C263.493,290.889,260.135,287.531,255.993,287.531z"/>
	</g>
</g>
<g>
	<g>
		<path d="M487.381,182.968c-7.231-12.525-23.305-16.832-35.829-9.6l-0.75,0.433l-0.386-0.668
			c-3.503-6.067-9.159-10.408-15.925-12.221c-6.766-1.813-13.835-0.883-19.902,2.62c-12.525,7.231-16.831,23.303-9.601,35.829
			l21.605,37.422c1.338,2.318,3.5,3.976,6.085,4.669c0.863,0.231,1.74,0.346,2.61,0.346c1.737,0,3.451-0.456,4.996-1.347
			l37.497-21.653C490.306,211.567,494.612,195.494,487.381,182.968z M470.281,205.808l-33.187,19.163l-19.116-33.11
			c-3.096-5.362-1.252-12.244,4.11-15.339c1.73-0.999,3.65-1.509,5.596-1.509c0.976,0,1.958,0.128,2.925,0.387
			c2.897,0.776,5.318,2.635,6.818,5.233l2.874,4.977c1.338,2.319,3.5,3.978,6.086,4.671c2.584,0.693,5.288,0.338,7.605-1.001
			l5.06-2.921c5.362-3.095,12.243-1.252,15.339,4.111C477.487,195.831,475.644,202.712,470.281,205.808z"/>
	</g>
</g>
<g>
	<g>
		<path d="M150.933,40.345c-2.91-10.859-9.874-19.934-19.609-25.555c-20.098-11.604-45.888-4.693-57.491,15.404l-3.975,6.884
			l-6.734-3.888C43.024,21.588,17.233,28.499,5.63,48.596c-11.604,20.097-4.693,45.887,15.404,57.491l12.744,7.357
			c3.587,2.072,8.174,0.843,10.246-2.744c2.071-3.587,0.842-8.174-2.745-10.245l-12.744-7.358
			C15.601,85.63,11.153,69.03,18.621,56.096c7.467-12.936,24.066-17.382,37.002-9.915l9.195,5.309
			c5.806,3.352,13.257,1.356,16.608-4.45l5.395-9.345c7.468-12.936,24.065-17.382,37.002-9.915
			c6.266,3.618,10.748,9.459,12.621,16.447s0.912,14.289-2.707,20.554L95.18,131.575l-32.283-18.638
			c-3.587-2.072-8.174-0.842-10.245,2.745c-2.071,3.587-0.842,8.174,2.745,10.245l34.745,20.059c1.874,1.082,3.953,1.634,6.06,1.634
			c1.056,0,2.119-0.139,3.167-0.42c3.138-0.841,5.76-2.853,7.383-5.666l39.976-69.253C152.349,62.546,153.842,51.204,150.933,40.345
			z"/>
	</g>
</g>
<g>
	<g>
		<path d="M116.51,267.566c-12.93,0-35.474-22.544-35.474-35.474c0-4.142-3.358-7.5-7.5-7.5c-4.142,0-7.5,3.358-7.5,7.5
			c0,12.93-22.544,35.474-35.474,35.474c-4.142,0-7.5,3.358-7.5,7.5c0,4.142,3.358,7.5,7.5,7.5c12.93,0,35.474,22.544,35.474,35.474
			c0,4.142,3.358,7.5,7.5,7.5c4.142,0,7.5-3.358,7.5-7.5c0-12.93,22.543-35.474,35.474-35.474c4.142,0,7.5-3.358,7.5-7.5
			C124.009,270.924,120.652,267.566,116.51,267.566z M73.536,296.821c-5.464-8.399-13.356-16.29-21.755-21.755
			c8.399-5.464,16.29-13.356,21.755-21.755c5.464,8.399,13.356,16.29,21.754,21.755C86.892,280.529,79,288.422,73.536,296.821z"/>
	</g>
</g>
<g>
	<g>
		<path d="M504.501,50.212c-9.551,0-26.894-17.342-26.894-26.893c0-4.142-3.358-7.5-7.5-7.5s-7.5,3.358-7.5,7.5
			c0,9.551-17.342,26.893-26.893,26.893c-4.142,0-7.5,3.358-7.5,7.5c0,4.142,3.358,7.5,7.5,7.5c9.551,0,26.893,17.342,26.893,26.893
			c0,4.142,3.358,7.5,7.5,7.5s7.5-3.358,7.5-7.5c0-9.551,17.342-26.893,26.894-26.893c4.142,0,7.5-3.358,7.5-7.5
			C512.001,53.57,508.643,50.212,504.501,50.212z M470.108,72.314c-3.922-5.544-9.059-10.68-14.603-14.603
			c5.544-3.922,10.68-9.059,14.603-14.602c3.922,5.544,9.059,10.68,14.602,14.602C479.166,61.635,474.03,66.77,470.108,72.314z"/>
	</g>
</g>
<g>
	<g>
		<path d="M319.191,456.071c-0.1-0.48-0.24-0.95-0.43-1.4c-0.19-0.46-0.42-0.89-0.69-1.3c-0.27-0.41-0.58-0.79-0.93-1.14
			c-0.35-0.34-0.73-0.66-1.14-0.93c-0.41-0.27-0.84-0.5-1.3-0.69c-0.45-0.19-0.92-0.33-1.4-0.43c-2.43-0.49-5.03,0.31-6.77,2.05
			c-0.34,0.35-0.66,0.73-0.93,1.14c-0.27,0.41-0.5,0.84-0.69,1.3c-0.19,0.45-0.33,0.92-0.43,1.4c-0.09,0.48-0.14,0.98-0.14,1.46
			c0,1.98,0.8,3.91,2.19,5.31c1.4,1.39,3.33,2.19,5.31,2.19c0.48,0,0.98-0.04,1.46-0.14c0.48-0.1,0.95-0.24,1.4-0.43
			c0.46-0.19,0.89-0.42,1.3-0.69c0.41-0.27,0.79-0.59,1.14-0.93c1.4-1.4,2.2-3.33,2.2-5.31
			C319.341,457.051,319.291,456.551,319.191,456.071z"/>
	</g>
</g>
<g>
	<g>
		<path d="M319.191,421.323c-0.1-0.48-0.24-0.95-0.43-1.4c-0.19-0.46-0.42-0.89-0.69-1.3c-0.27-0.41-0.58-0.79-0.93-1.14
			c-0.35-0.34-0.73-0.66-1.14-0.93c-0.41-0.27-0.84-0.5-1.3-0.69c-0.45-0.19-0.92-0.33-1.4-0.43c-2.43-0.49-5.03,0.31-6.77,2.05
			c-0.34,0.35-0.66,0.73-0.93,1.14c-0.27,0.41-0.5,0.84-0.69,1.3c-0.19,0.45-0.33,0.92-0.43,1.4c-0.09,0.48-0.14,0.98-0.14,1.46
			c0,1.98,0.8,3.91,2.19,5.31c1.4,1.39,3.33,2.19,5.31,2.19c0.48,0,0.98-0.05,1.46-0.14c0.48-0.1,0.95-0.24,1.4-0.43
			c0.46-0.19,0.89-0.42,1.3-0.69c0.41-0.27,0.79-0.59,1.14-0.93c0.35-0.35,0.66-0.73,0.93-1.14c0.27-0.41,0.5-0.84,0.69-1.3
			c0.19-0.45,0.33-0.92,0.43-1.4c0.1-0.48,0.15-0.98,0.15-1.47C319.341,422.303,319.291,421.803,319.191,421.323z"/>
	</g>
</g>
<g>
</g>
<g>
</g>
<g>
</g>
<g>
</g>
<g>
</g>
<g>
</g>
<g>
</g>
<g>
</g>
<g>
</g>
<g>
</g>
<g>
</g>
<g>
</g>
<g>
</g>
<g>
</g>
<g>
</g>
</svg>
