<!-- Generated by IcoMoon.io -->
<svg version="1.1" xmlns="http://www.w3.org/2000/svg" width="14" height="16" viewBox="0 0 14 16">
<title>A_TransGender-Symbol_black-and-white</title>
<path d="M0.057 0.057v3.026h1.21v-0.908l0.908 0.908-0.908 0.908 0.909 0.907 0.907-0.907 0.303 0.299c-0.601 0.758-0.96 1.711-0.96 2.748-0.001 2.216 1.628 4.062 3.761 4.389l-0.002 1.566h-1.74v1.362h1.74v1.589h1.362v-1.589h1.74v-1.362h-1.74v-1.569c2.124-0.329 3.76-2.173 3.76-4.387 0-1.035-0.357-1.989-0.956-2.746l2.113-2.116v1.967h1.21v-4.085h-4.085v1.21h1.967l-2.139 2.14c-0.722-0.51-1.603-0.81-2.551-0.81s-1.829 0.3-2.55 0.81l-0.325-0.324 0.908-0.908-0.908-0.908-0.908 0.908-0.908-0.908h0.908v-1.21zM6.865 3.842c1.755 0 3.177 1.423 3.177 3.177s-1.423 3.177-3.177 3.177v0c-1.755 0-3.177-1.423-3.177-3.177s1.423-3.177 3.177-3.177v0z"></path>
</svg>
