<!-- Generated by IcoMoon.io -->
<svg version="1.1" xmlns="http://www.w3.org/2000/svg" width="16" height="16" viewBox="0 0 16 16">
<title>interest</title>
<path fill="#fff" d="M8.744 1.047c-0.184 0.050-0.322 0.134-0.466 0.288-0.228 0.241-0.216 0.175-0.216 1.216v0.944l-0.122 0.344c-0.306 0.856-0.678 1.641-1.013 2.144-0.106 0.153-0.331 0.425-0.503 0.606l-0.316 0.328-0.025-0.2c-0.050-0.416-0.316-0.794-0.672-0.959l-0.178-0.084-2.116-0.009c-2.078-0.006-2.116-0.006-2.288 0.059-0.225 0.081-0.45 0.263-0.575 0.456-0.203 0.316-0.197 0.144-0.188 4.231l0.009 3.7 0.087 0.188c0.116 0.247 0.356 0.488 0.597 0.6l0.191 0.088h4.25l0.209-0.103c0.259-0.128 0.494-0.375 0.584-0.616 0.037-0.097 0.066-0.2 0.066-0.231 0-0.091 0.034-0.1 0.128-0.031 0.156 0.109 0.537 0.272 0.731 0.309 0.134 0.025 1.072 0.031 3.359 0.025l3.172-0.009 0.181-0.088c0.469-0.231 0.863-0.856 0.981-1.563 0.047-0.266 0.053-0.281 0.209-0.438 0.309-0.319 0.478-0.803 0.509-1.456l0.019-0.391 0.122-0.156c0.275-0.366 0.375-0.925 0.259-1.472-0.044-0.206-0.044-0.225 0.016-0.353 0.144-0.306 0.228-0.969 0.159-1.281-0.109-0.509-0.522-0.953-1.166-1.253-0.472-0.222-0.466-0.222-2.15-0.222h-1.506l0.022-0.119c0.012-0.063 0.044-0.222 0.066-0.35 0.066-0.334 0.094-1.334 0.047-1.659-0.128-0.891-0.512-1.666-1.047-2.094-0.463-0.375-0.975-0.512-1.431-0.387zM9.494 1.803c0.341 0.172 0.684 0.6 0.859 1.072 0.159 0.422 0.194 0.659 0.194 1.313 0 0.628-0.019 0.803-0.159 1.4-0.088 0.378-0.094 0.497-0.025 0.594 0.103 0.147 0.084 0.147 1.984 0.162l1.8 0.016 0.3 0.15c0.35 0.172 0.637 0.422 0.744 0.638 0.059 0.125 0.066 0.172 0.047 0.428-0.025 0.362-0.063 0.522-0.134 0.572-0.209 0.141-0.238 0.281-0.116 0.55 0.078 0.172 0.091 0.231 0.091 0.506 0 0.359-0.047 0.491-0.266 0.734-0.069 0.075-0.134 0.166-0.141 0.203-0.006 0.034-0.019 0.266-0.025 0.516-0.019 0.659-0.141 0.978-0.459 1.206-0.2 0.144-0.219 0.181-0.219 0.425 0 0.528-0.366 1.247-0.681 1.338-0.081 0.025-1.075 0.031-3.209 0.025-2.931-0.009-3.1-0.012-3.216-0.066-0.2-0.094-0.45-0.266-0.616-0.419l-0.153-0.144v-5.259l0.228-0.159c0.903-0.628 1.522-1.569 2.213-3.353l0.2-0.516 0.031-1.938 0.109-0.056c0.147-0.078 0.391-0.053 0.619 0.063zM5.178 6.425c0.047 0.034 0.119 0.125 0.159 0.203l0.069 0.138-0.006 3.594-0.009 3.594-0.072 0.116c-0.041 0.066-0.125 0.141-0.206 0.178-0.128 0.066-0.175 0.066-2.038 0.066h-1.906l-0.137-0.069c-0.103-0.053-0.159-0.109-0.213-0.213l-0.069-0.141 0.006-3.609 0.009-3.609 0.075-0.103c0.041-0.059 0.119-0.134 0.172-0.166 0.094-0.056 0.175-0.059 2.087-0.053 1.953 0.009 1.991 0.009 2.078 0.075z"></path>
</svg>
