<!-- Generated by IcoMoon.io -->
<svg version="1.1" xmlns="http://www.w3.org/2000/svg" width="16" height="16" viewBox="0 0 16 16">
<title>offerings</title>
<path fill="#fff" d="M6.592 3.208c-0.68 0.088-1.464 0.6-1.776 1.168-0.080 0.136-0.096 0.136-0.392-0.008-0.376-0.184-1.312-0.256-1.76-0.136-0.456 0.128-1.056 0.544-1.32 0.928-0.344 0.496-0.504 1.24-0.4 1.864 0.048 0.28 0.168 0.672 0.264 0.864 0.392 0.824 1.528 1.768 3.032 2.512 0.808 0.408 2.016 0.88 2.232 0.88 0.088 0 0.32-0.2 0.576-0.52 0.232-0.288 0.432-0.52 0.44-0.52 0.016 0 0.16 0.208 0.32 0.456 0.272 0.432 0.968 1.352 1.424 1.904l0.2 0.24 0.584-0.2c0.32-0.112 1.104-0.456 1.744-0.776 1.912-0.952 2.936-1.912 3.248-3.040 0.336-1.248-0.216-2.512-1.32-3.008-0.512-0.232-1.504-0.24-2.008-0.008l-0.36 0.16-0.392-0.432c-0.416-0.448-0.944-0.768-1.432-0.856-0.184-0.040-0.336-0.12-0.392-0.232-0.464-0.888-1.448-1.376-2.512-1.24zM7.296 4.352c0.296 0.064 0.68 0.408 0.872 0.784 0.216 0.424 0.208 1.048-0.008 1.712-0.208 0.608-0.184 1.016 0.088 1.616l0.16 0.376 0.2-0.32c0.296-0.488 0.664-1.488 0.768-2.112l0.096-0.56 0.2 0.112c0.448 0.232 0.736 0.696 0.888 1.44 0.056 0.264 0.12 0.512 0.136 0.552 0.024 0.040 0.256-0.152 0.52-0.424 0.728-0.768 1.296-0.96 1.944-0.656 0.528 0.248 0.784 0.576 0.824 1.080 0.048 0.584-0.088 0.928-0.56 1.448-0.504 0.552-1.248 1.048-2.4 1.592-1.328 0.632-1.176 0.648-1.776-0.16-0.976-1.32-1.552-2.504-1.624-3.328-0.040-0.408-0.016-0.528 0.208-0.976 0.136-0.28 0.248-0.616 0.248-0.744 0-0.376-0.16-0.744-0.32-0.744-0.208 0-0.784 0.664-1.024 1.184-0.28 0.608-0.288 1.464-0.024 2.352l0.184 0.608-0.344 0.448c-0.192 0.248-0.376 0.448-0.408 0.448s-0.392-0.144-0.8-0.32c-1.296-0.568-2.536-1.376-2.976-1.952-0.848-1.12-0.336-2.528 0.928-2.528 0.536 0 0.736 0.104 1.336 0.68 0.296 0.288 0.56 0.52 0.584 0.52s0.088-0.216 0.136-0.48c0.16-0.792 0.384-1.2 0.832-1.48 0.224-0.144 0.672-0.272 0.816-0.232 0.048 0.008 0.176 0.040 0.296 0.064z"></path>
</svg>
