<!-- Generated by IcoMoon.io -->
<svg version="1.1" xmlns="http://www.w3.org/2000/svg" width="16" height="16" viewBox="0 0 16 16">
<title>personality</title>
<path fill="#fff" d="M5.454 2.276c-2.361 0.612-3.335 0.896-3.534 1.024-0.32 0.213-0.569 0.683-0.569 1.088 0 0.391 1.244 4.999 1.479 5.497 0.27 0.548 1.060 1.323 1.692 1.65 0.37 0.199 0.562 0.348 0.704 0.569 0.64 0.974 2.617 2.546 3.193 2.546 0.32 0 1.429-0.313 2.148-0.604 1.55-0.626 2.674-1.607 3.051-2.667 0.142-0.398 1.031-5.198 1.031-5.561 0-0.498-0.306-0.974-0.747-1.159-0.114-0.050-0.853-0.213-1.636-0.356s-1.422-0.263-1.429-0.27c0-0.007-0.107-0.398-0.235-0.868-0.277-1.017-0.462-1.365-0.846-1.586-0.476-0.263-0.775-0.22-4.302 0.697zM5.639 3.783c-0.313 0.334-0.42 0.583-0.519 1.266-0.107 0.697-0.171 0.853-0.341 0.853-0.156 0-0.526 0.377-0.676 0.683l-0.114 0.22 0.37 0.199c0.206 0.114 0.377 0.206 0.384 0.206 0.007 0.007-0.064 0.455-0.164 1.003-0.092 0.548-0.171 1.116-0.171 1.266 0 0.242-0.014 0.27-0.107 0.192-0.263-0.22-0.434-0.704-1.031-2.923-0.348-1.301-0.633-2.375-0.619-2.382 0.036-0.028 3.008-0.796 3.1-0.804 0.064-0.007 0.021 0.085-0.114 0.22zM8.405 4.978c0.86 0.156 1.579 0.292 1.586 0.299 0.014 0.028-0.967 5.348-0.996 5.376-0.007 0.014-0.412-0.050-0.889-0.128-0.484-0.085-0.917-0.142-0.974-0.128-0.164 0.036 0.235 0.725 0.626 1.081 0.192 0.178 0.469 0.356 0.619 0.405 0.142 0.043 0.284 0.107 0.32 0.128 0.050 0.050-0.128 1.131-0.199 1.202-0.078 0.078-1.081-0.676-1.6-1.202-0.633-0.633-0.946-1.138-1.116-1.778l-0.121-0.469 0.412-2.482c0.228-1.365 0.427-2.503 0.448-2.539 0.050-0.085 0.242-0.064 1.884 0.235zM12.331 7.865c0.078 0.050 0.235 0.228 0.341 0.391 0.228 0.341 0.199 0.412-0.256 0.647-0.569 0.292-1.010 0.171-1.365-0.37-0.185-0.277-0.185-0.292-0.064-0.427 0.064-0.071 0.256-0.199 0.42-0.284 0.313-0.156 0.661-0.142 0.924 0.043z"></path>
<path fill="#fff" d="M7.268 7.154c-0.213 0.107-0.398 0.235-0.42 0.292-0.050 0.135 0.32 0.647 0.555 0.775 0.391 0.199 0.924 0.078 1.337-0.299 0.064-0.057-0.164-0.455-0.37-0.654-0.334-0.313-0.64-0.348-1.102-0.114z"></path>
</svg>
